<svg xmlns="http://www.w3.org/2000/svg" viewBox="0 0 70 70"><g data-name="Grupo 2044" transform="translate(-193 -213)"><path data-name="Caminho 740" d="M212.091 238.254v-12.326a.2.2 0 0 0-.2-.2h-5.963a.2.2 0 0 0-.2.2v18.69a.2.2 0 0 0 .2.2h18.69a.2.2 0 0 0 .2-.2v-5.963a.2.2 0 0 0-.2-.2h-12.327a.2.2 0 0 1-.2-.201Z" fill="#fff"/><path data-name="Caminho 741" d="M224.818 251.382a.2.2 0 0 0-.2-.2h-18.69a.2.2 0 0 0-.2.2v5.963a.2.2 0 0 0 .2.2h6.164v12.526a.2.2 0 0 0 .2.2h5.963a.2.2 0 0 0 .2-.2v-12.526h6.163a.2.2 0 0 0 .2-.2Z" fill="#fff"/><rect data-name="Retângulo 1813" width="6.364" height="6.364" rx="3.182" transform="translate(256.636 244.818)" fill="#ffbc00"/><path data-name="Caminho 742" d="M250.269 251.382a.2.2 0 0 0-.2-.2h-18.69a.2.2 0 0 0-.2.2v5.963a.2.2 0 0 0 .2.2h6.163v12.526a.2.2 0 0 0 .2.2h5.962a.2.2 0 0 0 .2-.2v-12.526h6.165a.2.2 0 0 0 .2-.2Z" fill="#fff"/><path data-name="Caminho 743" d="M243.909 225.928v12.326a.2.2 0 0 1-.2.2h-5.962a.2.2 0 0 1-.2-.2v-12.326a.2.2 0 0 0-.2-.2h-5.963a.2.2 0 0 0-.2.2v18.69a.2.2 0 0 0 .2.2h18.685a.2.2 0 0 0 .2-.2v-18.69a.2.2 0 0 0-.2-.2h-5.963a.2.2 0 0 0-.197.2Z" fill="#fff"/><path data-name="Caminho 744" d="M193.201 213a.2.2 0 0 0-.2.2v69.6a.2.2 0 0 0 .2.2h69.6a.2.2 0 0 0 .2-.2v-25.055a.2.2 0 0 0-.2-.2h-5.963a.2.2 0 0 0-.2.2v18.69a.2.2 0 0 1-.2.2h-56.874a.2.2 0 0 1-.2-.2v-56.873a.2.2 0 0 1 .2-.2h56.872a.2.2 0 0 1 .2.2v18.69a.2.2 0 0 0 .2.2h5.963a.2.2 0 0 0 .2-.2V213.2a.2.2 0 0 0-.2-.2Z" fill="#fff"/></g></svg>