<svg data-name="Grupo 1931" xmlns="http://www.w3.org/2000/svg" viewBox="0 0 229.412 70.109"><defs><clipPath id="a"><path data-name="Retângulo 2579" fill="none" d="M0 0h229.412v70.109H0z"/></clipPath></defs><g data-name="Grupo 1930" clip-path="url(#a)"><path data-name="Caminho 873" d="M19.121 25.293V12.948a.2.2 0 0 0-.2-.2h-5.973a.2.2 0 0 0-.2.2v18.719a.2.2 0 0 0 .2.2h18.719a.2.2 0 0 0 .2-.2v-5.972a.2.2 0 0 0-.2-.2H19.321a.2.2 0 0 1-.2-.2" fill="#fff"/><path data-name="Caminho 874" d="M31.869 38.442a.2.2 0 0 0-.2-.2h-18.72a.2.2 0 0 0-.2.2v5.972a.2.2 0 0 0 .2.2h6.173v12.547a.2.2 0 0 0 .2.2h5.972a.2.2 0 0 0 .2-.2V44.615h6.173a.2.2 0 0 0 .2-.2Z" fill="#fff"/><path data-name="Caminho 875" d="M66.923 38.238a3.187 3.187 0 1 1 3.187-3.187 3.187 3.187 0 0 1-3.187 3.187" fill="#ffbc00"/><path data-name="Caminho 876" d="M57.363 38.442a.2.2 0 0 0-.2-.2h-18.72a.2.2 0 0 0-.2.2v5.972a.2.2 0 0 0 .2.2h6.173v12.547a.2.2 0 0 0 .2.2h5.972a.2.2 0 0 0 .2-.2V44.615h6.173a.2.2 0 0 0 .2-.2Z" fill="#fff"/><path data-name="Caminho 877" d="M50.989 12.948v12.345a.2.2 0 0 1-.2.2h-5.973a.2.2 0 0 1-.2-.2V12.948a.2.2 0 0 0-.2-.2h-5.973a.2.2 0 0 0-.2.2v18.719a.2.2 0 0 0 .2.2h18.719a.2.2 0 0 0 .2-.2V12.948a.2.2 0 0 0-.2-.2H51.19a.2.2 0 0 0-.2.2" fill="#fff"/><path data-name="Caminho 878" d="M.2 0a.2.2 0 0 0-.2.2v69.709a.2.2 0 0 0 .2.2h69.709a.2.2 0 0 0 .2-.2V44.816a.2.2 0 0 0-.2-.2h-5.972a.2.2 0 0 0-.2.2v18.719a.2.2 0 0 1-.2.2H6.574a.2.2 0 0 1-.2-.2V6.574a.2.2 0 0 1 .2-.2h56.961a.2.2 0 0 1 .2.2v18.72a.2.2 0 0 0 .2.2h5.972a.2.2 0 0 0 .2-.2V.2a.2.2 0 0 0-.2-.2Z" fill="#fff"/><path data-name="Caminho 879" d="M227.547 22.475h-6.546a1.863 1.863 0 0 1-1.863-1.863V14.61a1.863 1.863 0 0 1 1.863-1.863h6.546a1.863 1.863 0 0 1 1.863 1.863v6.007a1.863 1.863 0 0 1-1.863 1.858" fill="#fff"/><path data-name="Caminho 880" d="M85.519 55.498v-40.8a1.954 1.954 0 0 1 1.954-1.954h6.465a1.864 1.864 0 0 1 1.864 1.863v33.444h18.7a1.863 1.863 0 0 1 1.863 1.863v5.584a1.863 1.863 0 0 1-1.863 1.863h-27.12a1.863 1.863 0 0 1-1.863-1.863" fill="#fff"/><path data-name="Caminho 881" d="M142.052 29.479v13.21a5.288 5.288 0 0 1-4.634 5.336 5.14 5.14 0 0 1-5.644-5.115V29.479a1.863 1.863 0 0 0-1.863-1.863h-6.55a1.863 1.863 0 0 0-1.863 1.863v12.466a15.417 15.417 0 0 0 15.121 15.414c8.639.162 15.711-7.177 15.711-15.817V29.479a1.863 1.863 0 0 0-1.863-1.863h-6.552a1.863 1.863 0 0 0-1.863 1.863" fill="#fff"/><path data-name="Caminho 882" d="M183.162 33.19v-3.71a1.863 1.863 0 0 0-1.863-1.863h-8.415V14.609a1.863 1.863 0 0 0-1.863-1.863h-6.551a1.863 1.863 0 0 0-1.864 1.863v13.008h-3.276a1.864 1.864 0 0 0-1.864 1.863v3.71a1.863 1.863 0 0 0 1.864 1.863h3.275v7.436a14.872 14.872 0 0 0 14.872 14.871h3.82a1.863 1.863 0 0 0 1.863-1.863v-5.584a1.863 1.863 0 0 0-1.863-1.863h-3.276a5.139 5.139 0 0 1-5.139-5.138v-7.859h8.415a1.863 1.863 0 0 0 1.863-1.863" fill="#fff"/><path data-name="Caminho 883" d="M213.995 33.19v-3.71a1.863 1.863 0 0 0-1.863-1.863h-8.415V14.609a1.863 1.863 0 0 0-1.863-1.863h-6.551a1.863 1.863 0 0 0-1.864 1.863v13.008h-3.275a1.864 1.864 0 0 0-1.864 1.863v3.71a1.863 1.863 0 0 0 1.864 1.863h3.275v7.436a14.872 14.872 0 0 0 14.872 14.871h3.82a1.863 1.863 0 0 0 1.863-1.863v-5.584a1.863 1.863 0 0 0-1.863-1.863h-3.276a5.139 5.139 0 0 1-5.139-5.138v-7.859h8.415a1.863 1.863 0 0 0 1.863-1.863" fill="#fff"/><path data-name="Caminho 884" d="M227.549 57.324h-6.552a1.863 1.863 0 0 1-1.863-1.863V29.469a1.863 1.863 0 0 1 1.863-1.863h6.552a1.863 1.863 0 0 1 1.863 1.863v25.992a1.863 1.863 0 0 1-1.863 1.863" fill="#fff"/></g></svg>